<?xml version="1.0" encoding="UTF-8" standalone="no"?>
<!DOCTYPE svg PUBLIC "-//W3C//DTD SVG 1.1//EN"
    "http://www.w3.org/Graphics/SVG/1.1/DTD/svg11.dtd">
<!-- Generated by graphviz version 2.42.4 (0)
 -->
<!-- Title: RiceVMLimboWorkflow Pages: 1 -->
<svg width="833pt" height="386pt"
     viewBox="0.00 0.00 833.00 386.00" xmlns="http://www.w3.org/2000/svg">
    <g id="graph0" class="graph" transform="scale(1 1) rotate(0) translate(4 382)">
        <title>RiceVMLimboWorkflow</title>
        <polygon fill="white" stroke="transparent" points="-4,4 -4,-382 829,-382 829,4 -4,4"/>
        <g id="clust1" class="cluster">
            <title>cluster_limbo_compiler</title>
            <path fill="white" stroke="#2563eb" stroke-width="1.4"
                  d="M20,-107C20,-107 379,-107 379,-107 385,-107 391,-113 391,-119 391,-119 391,-358 391,-358 391,-364 385,-370 379,-370 379,-370 20,-370 20,-370 14,-370 8,-364 8,-358 8,-358 8,-119 8,-119 8,-113 14,-107 20,-107"/>
            <text text-anchor="middle" x="199.5" y="-354.8" font-family="Helvetica,Arial,sans-serif" font-size="14.00">
                Limbo Compiler
            </text>
        </g>
        <g id="clust2" class="cluster">
            <title>cluster_dis_vm</title>
            <path fill="white" stroke="#65a30d" stroke-width="1.4"
                  d="M436,-193C436,-193 796,-193 796,-193 802,-193 808,-199 808,-205 808,-205 808,-272 808,-272 808,-278 802,-284 796,-284 796,-284 436,-284 436,-284 430,-284 424,-278 424,-272 424,-272 424,-205 424,-205 424,-199 430,-193 436,-193"/>
            <text text-anchor="middle" x="616" y="-268.8" font-family="Helvetica,Arial,sans-serif" font-size="14.00">Dis
                VM
            </text>
        </g>
        <g id="clust3" class="cluster">
            <title>cluster_utilities</title>
            <path fill="white" stroke="#d97706" stroke-width="1.4"
                  d="M598,-8C598,-8 805,-8 805,-8 811,-8 817,-14 817,-20 817,-20 817,-173 817,-173 817,-179 811,-185 805,-185 805,-185 598,-185 598,-185 592,-185 586,-179 586,-173 586,-173 586,-20 586,-20 586,-14 592,-8 598,-8"/>
            <text text-anchor="middle" x="701.5" y="-169.8" font-family="Helvetica,Arial,sans-serif" font-size="14.00">
                Utilities
            </text>
        </g>
        <!-- program_b -->
        <g id="node1" class="node">
            <title>program_b</title>
            <polygon fill="#e0f2fe" stroke="#0284c7" stroke-width="1.4"
                     points="111,-331 24,-331 24,-295 111,-295 111,-331"/>
            <text text-anchor="middle" x="67.5" y="-309.3" font-family="Helvetica,Arial,sans-serif" font-size="14.00">
                program.b
            </text>
        </g>
        <!-- compile_cmd -->
        <g id="node4" class="node">
            <title>compile_cmd</title>
            <polygon fill="#dbeafe" stroke="#2563eb" stroke-width="1.4"
                     points="375,-245 176,-245 176,-209 375,-209 375,-245"/>
            <text text-anchor="middle" x="275.5" y="-223.3" font-family="Helvetica,Arial,sans-serif" font-size="14.00">
                ricevm&#45;cli compile program.b
            </text>
        </g>
        <!-- program_b&#45;&gt;compile_cmd -->
        <g id="edge1" class="edge">
            <title>program_b&#45;&gt;compile_cmd</title>
            <path fill="none" stroke="#475569" stroke-width="1.2"
                  d="M111.18,-295.18C143.28,-281.78 187.45,-263.34 221.76,-249.02"/>
            <polygon fill="#475569" stroke="#475569" stroke-width="1.2"
                     points="223.28,-252.17 231.16,-245.09 220.59,-245.72 223.28,-252.17"/>
        </g>
        <!-- sys_m -->
        <g id="node2" class="node">
            <title>sys_m</title>
            <polygon fill="#f8fafc" stroke="#64748b" stroke-width="1.4" stroke-dasharray="5,2"
                     points="98,-245 37,-245 37,-209 98,-209 98,-245"/>
            <text text-anchor="middle" x="67.5" y="-223.3" font-family="Helvetica,Arial,sans-serif" font-size="14.00">
                sys.m
            </text>
        </g>
        <!-- sys_m&#45;&gt;compile_cmd -->
        <g id="edge2" class="edge">
            <title>sys_m&#45;&gt;compile_cmd</title>
            <path fill="none" stroke="#475569" stroke-width="1.2" stroke-dasharray="5,2"
                  d="M98.01,-227C116.1,-227 140.5,-227 165.38,-227"/>
            <polygon fill="#475569" stroke="#475569" stroke-width="1.2"
                     points="165.67,-230.5 175.67,-227 165.67,-223.5 165.67,-230.5"/>
        </g>
        <!-- draw_m -->
        <g id="node3" class="node">
            <title>draw_m</title>
            <polygon fill="#f8fafc" stroke="#64748b" stroke-width="1.4" stroke-dasharray="5,2"
                     points="102.5,-159 32.5,-159 32.5,-123 102.5,-123 102.5,-159"/>
            <text text-anchor="middle" x="67.5" y="-137.3" font-family="Helvetica,Arial,sans-serif" font-size="14.00">
                draw.m
            </text>
        </g>
        <!-- draw_m&#45;&gt;compile_cmd -->
        <g id="edge3" class="edge">
            <title>draw_m&#45;&gt;compile_cmd</title>
            <path fill="none" stroke="#475569" stroke-width="1.2" stroke-dasharray="5,2"
                  d="M102.52,-155.2C134.96,-168.75 184.32,-189.35 221.84,-205.02"/>
            <polygon fill="#475569" stroke="#475569" stroke-width="1.2"
                     points="220.54,-208.26 231.11,-208.89 223.23,-201.8 220.54,-208.26"/>
        </g>
        <!-- program_dis -->
        <g id="node5" class="node">
            <title>program_dis</title>
            <polygon fill="#ecfccb" stroke="#65a30d" stroke-width="1.4"
                     points="537,-245 440,-245 440,-209 537,-209 537,-245"/>
            <text text-anchor="middle" x="488.5" y="-223.3" font-family="Helvetica,Arial,sans-serif" font-size="14.00">
                program.dis
            </text>
        </g>
        <!-- compile_cmd&#45;&gt;program_dis -->
        <g id="edge7" class="edge">
            <title>compile_cmd&#45;&gt;program_dis</title>
            <path fill="none" stroke="#475569" stroke-width="1.2" d="M375.2,-227C393.86,-227 412.79,-227 429.67,-227"/>
            <polygon fill="#475569" stroke="#475569" stroke-width="1.2"
                     points="429.89,-230.5 439.89,-227 429.89,-223.5 429.89,-230.5"/>
        </g>
        <!-- run_cmd -->
        <g id="node6" class="node">
            <title>run_cmd</title>
            <polygon fill="#fce7f3" stroke="#db2777" stroke-width="1.4"
                     points="792,-245 611,-245 611,-209 792,-209 792,-245"/>
            <text text-anchor="middle" x="701.5" y="-223.3" font-family="Helvetica,Arial,sans-serif" font-size="14.00">
                ricevm&#45;cli run program.dis
            </text>
        </g>
        <!-- program_dis&#45;&gt;run_cmd -->
        <g id="edge4" class="edge">
            <title>program_dis&#45;&gt;run_cmd</title>
            <path fill="none" stroke="#475569" stroke-width="1.2" d="M537.12,-227C555.98,-227 578.43,-227 600.55,-227"/>
            <polygon fill="#475569" stroke="#475569" stroke-width="1.2"
                     points="600.67,-230.5 610.67,-227 600.67,-223.5 600.67,-230.5"/>
        </g>
        <!-- dis_cmd -->
        <g id="node7" class="node">
            <title>dis_cmd</title>
            <polygon fill="#fef3c7" stroke="#d97706" stroke-width="1.4"
                     points="791,-146 612,-146 612,-110 791,-110 791,-146"/>
            <text text-anchor="middle" x="701.5" y="-124.3" font-family="Helvetica,Arial,sans-serif" font-size="14.00">
                ricevm&#45;cli dis program.dis
            </text>
        </g>
        <!-- program_dis&#45;&gt;dis_cmd -->
        <g id="edge5" class="edge">
            <title>program_dis&#45;&gt;dis_cmd</title>
            <path fill="none" stroke="#475569" stroke-width="1.2" stroke-dasharray="5,2"
                  d="M527.03,-208.99C544.87,-200.46 566.51,-190.15 586,-181 607.66,-170.82 631.69,-159.68 652.12,-150.25"/>
            <polygon fill="#475569" stroke="#475569" stroke-width="1.2"
                     points="653.62,-153.41 661.23,-146.04 650.69,-147.05 653.62,-153.41"/>
        </g>
        <!-- debug_cmd -->
        <g id="node8" class="node">
            <title>debug_cmd</title>
            <polygon fill="#e9d5ff" stroke="#7c3aed" stroke-width="1.4"
                     points="801,-60 602,-60 602,-24 801,-24 801,-60"/>
            <text text-anchor="middle" x="701.5" y="-38.3" font-family="Helvetica,Arial,sans-serif" font-size="14.00">
                ricevm&#45;cli debug program.dis
            </text>
        </g>
        <!-- program_dis&#45;&gt;debug_cmd -->
        <g id="edge6" class="edge">
            <title>program_dis&#45;&gt;debug_cmd</title>
            <path fill="none" stroke="#475569" stroke-width="1.2" stroke-dasharray="5,2"
                  d="M497.43,-208.64C511.23,-178.71 542.43,-119.28 586,-85 596.81,-76.5 609.48,-69.54 622.38,-63.9"/>
            <polygon fill="#475569" stroke="#475569" stroke-width="1.2"
                     points="623.88,-67.07 631.79,-60.02 621.21,-60.6 623.88,-67.07"/>
        </g>
    </g>
</svg>
